<svg xmlns="http://www.w3.org/2000/svg" width="390" height="844" viewBox="0 0 390 844">
    <rect width="390" height="844" fill="#F8FAFC"/>
    <rect x="0" y="0" width="390" height="96" fill="#F8FAFC"/><text x="24" y="54" text-anchor="start" font-family="Arial, Noto Sans TC, sans-serif" font-size="22" font-weight="700" fill="#0F172A">←</text><text x="195" y="54" text-anchor="middle" font-family="Arial, Noto Sans TC, sans-serif" font-size="20" font-weight="700" fill="#0F172A">空腹血糖</text><rect x="16" y="104" width="358" height="240" rx="16" fill="#FFFFFF" stroke="#E2E8F0"/><text x="32" y="132" font-family="Arial, Noto Sans TC, sans-serif" font-size="16" font-weight="700" fill="#0F172A">趨勢圖</text><line x1="40" y1="300" x2="340" y2="300" stroke="#CBD5E1" stroke-width="2"/><line x1="40" y1="160" x2="40" y2="300" stroke="#CBD5E1" stroke-width="2"/><line x1="50" y1="280" x2="120" y2="250" stroke="#38BDF8" stroke-width="3"/><line x1="120" y1="250" x2="190" y2="230" stroke="#38BDF8" stroke-width="3"/><line x1="190" y1="230" x2="260" y2="210" stroke="#38BDF8" stroke-width="3"/><line x1="260" y1="210" x2="330" y2="190" stroke="#38BDF8" stroke-width="3"/><circle cx="50" cy="280" r="4" fill="#0EA5E9"/><circle cx="120" cy="250" r="4" fill="#0EA5E9"/><circle cx="190" cy="230" r="4" fill="#0EA5E9"/><circle cx="260" cy="210" r="4" fill="#0EA5E9"/><circle cx="330" cy="190" r="4" fill="#0EA5E9"/><text x="50" y="320" text-anchor="middle" font-family="Arial, Noto Sans TC, sans-serif" font-size="11" font-weight="400" fill="#64748B">04/01</text><text x="120" y="320" text-anchor="middle" font-family="Arial, Noto Sans TC, sans-serif" font-size="11" font-weight="400" fill="#64748B">04/05</text><text x="190" y="320" text-anchor="middle" font-family="Arial, Noto Sans TC, sans-serif" font-size="11" font-weight="400" fill="#64748B">04/10</text><text x="260" y="320" text-anchor="middle" font-family="Arial, Noto Sans TC, sans-serif" font-size="11" font-weight="400" fill="#64748B">04/15</text><text x="330" y="320" text-anchor="middle" font-family="Arial, Noto Sans TC, sans-serif" font-size="11" font-weight="400" fill="#64748B">04/18</text><rect x="98" y="114" width="44" height="28" rx="14" fill="#F1F5F9"/><text x="120" y="133" text-anchor="middle" font-family="Arial, Noto Sans TC, sans-serif" font-size="12" font-weight="700" fill="#64748B">日</text><rect x="150" y="114" width="44" height="28" rx="14" fill="#DBEAFE"/><text x="172" y="133" text-anchor="middle" font-family="Arial, Noto Sans TC, sans-serif" font-size="12" font-weight="700" fill="#1E3A8A">月</text><rect x="202" y="114" width="44" height="28" rx="14" fill="#F1F5F9"/><text x="224" y="133" text-anchor="middle" font-family="Arial, Noto Sans TC, sans-serif" font-size="12" font-weight="700" fill="#64748B">年</text><rect x="16" y="360" width="358" height="76" rx="16" fill="#FFFFFF" stroke="#E2E8F0"/><text x="32" y="390" text-anchor="start" font-family="Arial, Noto Sans TC, sans-serif" font-size="13" font-weight="400" fill="#64748B">目前數值</text><text x="32" y="420" text-anchor="start" font-family="Arial, Noto Sans TC, sans-serif" font-size="28" font-weight="700" fill="#0F172A">98 mg/dL</text><text x="340" y="420" text-anchor="end" font-family="Arial, Noto Sans TC, sans-serif" font-size="14" font-weight="700" fill="#F59E0B">略高</text><rect x="16" y="448" width="358" height="110" rx="16" fill="#FFFFFF" stroke="#E2E8F0"/><text x="32" y="476" font-family="Arial, Noto Sans TC, sans-serif" font-size="16" font-weight="700" fill="#0F172A">AI 分析摘要</text><text x="32" y="496" text-anchor="start" font-family="Arial, Noto Sans TC, sans-serif" font-size="14" font-weight="400" fill="#334155">近 3 個月呈上升趨勢，建議搭配 HbA1c 與飲食控制追蹤。</text><rect x="16" y="572" width="358" height="168" rx="16" fill="#FFFFFF" stroke="#E2E8F0"/><text x="32" y="600" font-family="Arial, Noto Sans TC, sans-serif" font-size="16" font-weight="700" fill="#0F172A">歷史紀錄</text><line x1="32" y1="630" x2="358" y2="630" stroke="#CBD5E1" stroke-width="1"/><text x="32" y="612" text-anchor="start" font-family="Arial, Noto Sans TC, sans-serif" font-size="13" font-weight="400" fill="#64748B">2026/04/18</text><text x="342" y="612" text-anchor="end" font-family="Arial, Noto Sans TC, sans-serif" font-size="14" font-weight="700" fill="#0F172A">98 mg/dL</text><line x1="32" y1="668" x2="358" y2="668" stroke="#CBD5E1" stroke-width="1"/><text x="32" y="650" text-anchor="start" font-family="Arial, Noto Sans TC, sans-serif" font-size="13" font-weight="400" fill="#64748B">2026/04/10</text><text x="342" y="650" text-anchor="end" font-family="Arial, Noto Sans TC, sans-serif" font-size="14" font-weight="700" fill="#0F172A">92 mg/dL</text><line x1="32" y1="706" x2="358" y2="706" stroke="#CBD5E1" stroke-width="1"/><text x="32" y="688" text-anchor="start" font-family="Arial, Noto Sans TC, sans-serif" font-size="13" font-weight="400" fill="#64748B">2026/04/01</text><text x="342" y="688" text-anchor="end" font-family="Arial, Noto Sans TC, sans-serif" font-size="14" font-weight="700" fill="#0F172A">88 mg/dL</text><rect x="0" y="770" width="390" height="74" fill="#FFFFFF" stroke="#E2E8F0"/><circle cx="40" cy="796" r="10" fill="#94A3B8"/><text x="40" y="830" text-anchor="middle" font-family="Arial, Noto Sans TC, sans-serif" font-size="11" font-weight="700" fill="#94A3B8">首頁</text><circle cx="120" cy="796" r="10" fill="#1E3A8A"/><text x="120" y="830" text-anchor="middle" font-family="Arial, Noto Sans TC, sans-serif" font-size="11" font-weight="700" fill="#1E3A8A">健康紀錄</text><circle cx="195" cy="792" r="24" fill="#1E3A8A"/><text x="195" y="800" text-anchor="middle" font-family="Arial" font-size="28" font-weight="700" fill="#fff">+</text><text x="195" y="830" text-anchor="middle" font-family="Arial, Noto Sans TC, sans-serif" font-size="11" font-weight="700" fill="#94A3B8">新增</text><circle cx="270" cy="796" r="10" fill="#94A3B8"/><text x="270" y="830" text-anchor="middle" font-family="Arial, Noto Sans TC, sans-serif" font-size="11" font-weight="700" fill="#94A3B8">分析</text><circle cx="345" cy="796" r="10" fill="#94A3B8"/><text x="345" y="830" text-anchor="middle" font-family="Arial, Noto Sans TC, sans-serif" font-size="11" font-weight="700" fill="#94A3B8">我的</text>
    </svg>