<svg xmlns="http://www.w3.org/2000/svg" width="390" height="844" viewBox="0 0 390 844">
    <rect width="390" height="844" fill="#F8FAFC"/>
    <rect x="0" y="0" width="390" height="96" fill="#F8FAFC"/><text x="24" y="54" text-anchor="start" font-family="Arial, Noto Sans TC, sans-serif" font-size="22" font-weight="700" fill="#0F172A">←</text><text x="195" y="54" text-anchor="middle" font-family="Arial, Noto Sans TC, sans-serif" font-size="20" font-weight="700" fill="#0F172A">新增資料</text><rect x="16" y="132" width="358" height="84" rx="16" fill="#FFFFFF" stroke="#E2E8F0"/><circle cx="52" cy="174" r="20" fill="#1E3A8A"/><text x="52" y="181" text-anchor="middle" font-family="Arial, Noto Sans TC, sans-serif" font-size="16" font-weight="700" fill="#fff">✎</text><text x="84" y="167" text-anchor="start" font-family="Arial, Noto Sans TC, sans-serif" font-size="16" font-weight="700" fill="#0F172A">手動輸入</text><text x="84" y="190" text-anchor="start" font-family="Arial, Noto Sans TC, sans-serif" font-size="12" font-weight="400" fill="#64748B">自行輸入檢測項目與數值</text><rect x="16" y="232" width="358" height="84" rx="16" fill="#FFFFFF" stroke="#E2E8F0"/><circle cx="52" cy="274" r="20" fill="#0F766E"/><text x="52" y="281" text-anchor="middle" font-family="Arial, Noto Sans TC, sans-serif" font-size="16" font-weight="700" fill="#fff">📷</text><text x="84" y="267" text-anchor="start" font-family="Arial, Noto Sans TC, sans-serif" font-size="16" font-weight="700" fill="#0F172A">拍照辨識</text><text x="84" y="290" text-anchor="start" font-family="Arial, Noto Sans TC, sans-serif" font-size="12" font-weight="400" fill="#64748B">OCR 辨識報告內容</text><rect x="16" y="332" width="358" height="84" rx="16" fill="#FFFFFF" stroke="#E2E8F0"/><circle cx="52" cy="374" r="20" fill="#7C3AED"/><text x="52" y="381" text-anchor="middle" font-family="Arial, Noto Sans TC, sans-serif" font-size="16" font-weight="700" fill="#fff">⌁</text><text x="84" y="367" text-anchor="start" font-family="Arial, Noto Sans TC, sans-serif" font-size="16" font-weight="700" fill="#0F172A">藍牙同步</text><text x="84" y="390" text-anchor="start" font-family="Arial, Noto Sans TC, sans-serif" font-size="12" font-weight="400" fill="#64748B">連接監測設備自動同步</text><rect x="0" y="770" width="390" height="74" fill="#FFFFFF" stroke="#E2E8F0"/><circle cx="40" cy="796" r="10" fill="#94A3B8"/><text x="40" y="830" text-anchor="middle" font-family="Arial, Noto Sans TC, sans-serif" font-size="11" font-weight="700" fill="#94A3B8">首頁</text><circle cx="120" cy="796" r="10" fill="#94A3B8"/><text x="120" y="830" text-anchor="middle" font-family="Arial, Noto Sans TC, sans-serif" font-size="11" font-weight="700" fill="#94A3B8">健康紀錄</text><circle cx="195" cy="792" r="24" fill="#1E3A8A"/><text x="195" y="800" text-anchor="middle" font-family="Arial" font-size="28" font-weight="700" fill="#fff">+</text><text x="195" y="830" text-anchor="middle" font-family="Arial, Noto Sans TC, sans-serif" font-size="11" font-weight="700" fill="#1E3A8A">新增</text><circle cx="270" cy="796" r="10" fill="#94A3B8"/><text x="270" y="830" text-anchor="middle" font-family="Arial, Noto Sans TC, sans-serif" font-size="11" font-weight="700" fill="#94A3B8">分析</text><circle cx="345" cy="796" r="10" fill="#94A3B8"/><text x="345" y="830" text-anchor="middle" font-family="Arial, Noto Sans TC, sans-serif" font-size="11" font-weight="700" fill="#94A3B8">我的</text>
    </svg>