<svg xmlns="http://www.w3.org/2000/svg" width="390" height="844" viewBox="0 0 390 844">
    <rect width="390" height="844" fill="#F8FAFC"/>
    <rect x="0" y="0" width="390" height="96" fill="#F8FAFC"/><text x="24" y="54" text-anchor="start" font-family="Arial, Noto Sans TC, sans-serif" font-size="22" font-weight="700" fill="#0F172A">←</text><text x="195" y="54" text-anchor="middle" font-family="Arial, Noto Sans TC, sans-serif" font-size="20" font-weight="700" fill="#0F172A">手動輸入</text><rect x="16" y="108" width="358" height="532" rx="16" fill="#FFFFFF" stroke="#E2E8F0"/><text x="32" y="136" font-family="Arial, Noto Sans TC, sans-serif" font-size="16" font-weight="700" fill="#0F172A">新增檢測資料</text><text x="32" y="150" text-anchor="start" font-family="Arial, Noto Sans TC, sans-serif" font-size="13" font-weight="700" fill="#334155">分類</text><rect x="32" y="160" width="326" height="46" rx="12" fill="#F8FAFC" stroke="#CBD5E1"/><text x="46" y="189" text-anchor="start" font-family="Arial, Noto Sans TC, sans-serif" font-size="14" font-weight="400" fill="#0F172A">常規血液檢查</text><text x="32" y="222" text-anchor="start" font-family="Arial, Noto Sans TC, sans-serif" font-size="13" font-weight="700" fill="#334155">子分類</text><rect x="32" y="232" width="326" height="46" rx="12" fill="#F8FAFC" stroke="#CBD5E1"/><text x="46" y="261" text-anchor="start" font-family="Arial, Noto Sans TC, sans-serif" font-size="14" font-weight="400" fill="#0F172A">血糖</text><text x="32" y="294" text-anchor="start" font-family="Arial, Noto Sans TC, sans-serif" font-size="13" font-weight="700" fill="#334155">項目</text><rect x="32" y="304" width="326" height="46" rx="12" fill="#F8FAFC" stroke="#CBD5E1"/><text x="46" y="333" text-anchor="start" font-family="Arial, Noto Sans TC, sans-serif" font-size="14" font-weight="400" fill="#0F172A">空腹血糖</text><text x="32" y="366" text-anchor="start" font-family="Arial, Noto Sans TC, sans-serif" font-size="13" font-weight="700" fill="#334155">數值</text><rect x="32" y="376" width="326" height="46" rx="12" fill="#F8FAFC" stroke="#CBD5E1"/><text x="46" y="405" text-anchor="start" font-family="Arial, Noto Sans TC, sans-serif" font-size="14" font-weight="400" fill="#0F172A">98</text><text x="32" y="438" text-anchor="start" font-family="Arial, Noto Sans TC, sans-serif" font-size="13" font-weight="700" fill="#334155">單位</text><rect x="32" y="448" width="326" height="46" rx="12" fill="#F8FAFC" stroke="#CBD5E1"/><text x="46" y="477" text-anchor="start" font-family="Arial, Noto Sans TC, sans-serif" font-size="14" font-weight="400" fill="#0F172A">mg/dL</text><text x="32" y="510" text-anchor="start" font-family="Arial, Noto Sans TC, sans-serif" font-size="13" font-weight="700" fill="#334155">日期</text><rect x="32" y="520" width="326" height="46" rx="12" fill="#F8FAFC" stroke="#CBD5E1"/><text x="46" y="549" text-anchor="start" font-family="Arial, Noto Sans TC, sans-serif" font-size="14" font-weight="400" fill="#0F172A">2026/04/18</text><text x="32" y="582" text-anchor="start" font-family="Arial, Noto Sans TC, sans-serif" font-size="13" font-weight="700" fill="#334155">備註</text><rect x="32" y="592" width="326" height="46" rx="12" fill="#F8FAFC" stroke="#CBD5E1"/><text x="46" y="621" text-anchor="start" font-family="Arial, Noto Sans TC, sans-serif" font-size="14" font-weight="400" fill="#0F172A">早餐前採樣</text><rect x="16" y="664" width="358" height="50" rx="14" fill="#1E3A8A"/><text x="195.0" y="694.0" text-anchor="middle" font-family="Arial, Noto Sans TC, sans-serif" font-size="16" font-weight="700" fill="#fff">儲存資料</text><rect x="0" y="770" width="390" height="74" fill="#FFFFFF" stroke="#E2E8F0"/><circle cx="40" cy="796" r="10" fill="#94A3B8"/><text x="40" y="830" text-anchor="middle" font-family="Arial, Noto Sans TC, sans-serif" font-size="11" font-weight="700" fill="#94A3B8">首頁</text><circle cx="120" cy="796" r="10" fill="#94A3B8"/><text x="120" y="830" text-anchor="middle" font-family="Arial, Noto Sans TC, sans-serif" font-size="11" font-weight="700" fill="#94A3B8">健康紀錄</text><circle cx="195" cy="792" r="24" fill="#1E3A8A"/><text x="195" y="800" text-anchor="middle" font-family="Arial" font-size="28" font-weight="700" fill="#fff">+</text><text x="195" y="830" text-anchor="middle" font-family="Arial, Noto Sans TC, sans-serif" font-size="11" font-weight="700" fill="#1E3A8A">新增</text><circle cx="270" cy="796" r="10" fill="#94A3B8"/><text x="270" y="830" text-anchor="middle" font-family="Arial, Noto Sans TC, sans-serif" font-size="11" font-weight="700" fill="#94A3B8">分析</text><circle cx="345" cy="796" r="10" fill="#94A3B8"/><text x="345" y="830" text-anchor="middle" font-family="Arial, Noto Sans TC, sans-serif" font-size="11" font-weight="700" fill="#94A3B8">我的</text>
    </svg>