<svg xmlns="http://www.w3.org/2000/svg" width="390" height="844" viewBox="0 0 390 844">
    <rect width="390" height="844" fill="#F8FAFC"/>
    <rect x="0" y="0" width="390" height="96" fill="#F8FAFC"/><text x="24" y="54" text-anchor="start" font-family="Arial, Noto Sans TC, sans-serif" font-size="22" font-weight="700" fill="#0F172A">←</text><text x="195" y="54" text-anchor="middle" font-family="Arial, Noto Sans TC, sans-serif" font-size="20" font-weight="700" fill="#0F172A">辨識結果確認</text><rect x="16" y="108" width="358" height="560" rx="16" fill="#FFFFFF" stroke="#E2E8F0"/><text x="32" y="136" font-family="Arial, Noto Sans TC, sans-serif" font-size="16" font-weight="700" fill="#0F172A">請確認辨識內容</text><rect x="30" y="138" width="16" height="16" rx="4" fill="#1E3A8A"/><text x="38" y="151" text-anchor="middle" font-family="Arial, Noto Sans TC, sans-serif" font-size="10" font-weight="700" fill="#fff">✓</text><text x="58" y="156" text-anchor="start" font-family="Arial, Noto Sans TC, sans-serif" font-size="14" font-weight="700" fill="#0F172A">空腹血糖</text><text x="342" y="156" text-anchor="end" font-family="Arial, Noto Sans TC, sans-serif" font-size="14" font-weight="700" fill="#0F172A">98 mg/dL</text><line x1="32" y1="172" x2="358" y2="172" stroke="#CBD5E1" stroke-width="1"/><rect x="30" y="190" width="16" height="16" rx="4" fill="#1E3A8A"/><text x="38" y="203" text-anchor="middle" font-family="Arial, Noto Sans TC, sans-serif" font-size="10" font-weight="700" fill="#fff">✓</text><text x="58" y="208" text-anchor="start" font-family="Arial, Noto Sans TC, sans-serif" font-size="14" font-weight="700" fill="#0F172A">ALT</text><text x="342" y="208" text-anchor="end" font-family="Arial, Noto Sans TC, sans-serif" font-size="14" font-weight="700" fill="#0F172A">45 U/L</text><line x1="32" y1="224" x2="358" y2="224" stroke="#CBD5E1" stroke-width="1"/><rect x="30" y="242" width="16" height="16" rx="4" fill="#1E3A8A"/><text x="38" y="255" text-anchor="middle" font-family="Arial, Noto Sans TC, sans-serif" font-size="10" font-weight="700" fill="#fff">✓</text><text x="58" y="260" text-anchor="start" font-family="Arial, Noto Sans TC, sans-serif" font-size="14" font-weight="700" fill="#0F172A">HbA1c</text><text x="342" y="260" text-anchor="end" font-family="Arial, Noto Sans TC, sans-serif" font-size="14" font-weight="700" fill="#0F172A">5.8 %</text><line x1="32" y1="276" x2="358" y2="276" stroke="#CBD5E1" stroke-width="1"/><rect x="30" y="294" width="16" height="16" rx="4" fill="#1E3A8A"/><text x="38" y="307" text-anchor="middle" font-family="Arial, Noto Sans TC, sans-serif" font-size="10" font-weight="700" fill="#fff">✓</text><text x="58" y="312" text-anchor="start" font-family="Arial, Noto Sans TC, sans-serif" font-size="14" font-weight="700" fill="#0F172A">基因位點 NAT2</text><text x="342" y="312" text-anchor="end" font-family="Arial, Noto Sans TC, sans-serif" font-size="14" font-weight="700" fill="#0F172A">CC</text><line x1="32" y1="328" x2="358" y2="328" stroke="#CBD5E1" stroke-width="1"/><rect x="30" y="346" width="16" height="16" rx="4" fill="#1E3A8A"/><text x="38" y="359" text-anchor="middle" font-family="Arial, Noto Sans TC, sans-serif" font-size="10" font-weight="700" fill="#fff">✓</text><text x="58" y="364" text-anchor="start" font-family="Arial, Noto Sans TC, sans-serif" font-size="14" font-weight="700" fill="#0F172A">肝癌風險 EGF</text><text x="342" y="364" text-anchor="end" font-family="Arial, Noto Sans TC, sans-serif" font-size="14" font-weight="700" fill="#0F172A">高</text><line x1="32" y1="380" x2="358" y2="380" stroke="#CBD5E1" stroke-width="1"/><rect x="16" y="686" width="170" height="50" rx="14" fill="#475569"/><text x="101.0" y="716.0" text-anchor="middle" font-family="Arial, Noto Sans TC, sans-serif" font-size="16" font-weight="700" fill="#fff">重新拍攝</text><rect x="204" y="686" width="170" height="50" rx="14" fill="#10B981"/><text x="289.0" y="716.0" text-anchor="middle" font-family="Arial, Noto Sans TC, sans-serif" font-size="16" font-weight="700" fill="#fff">確認匯入</text><rect x="0" y="770" width="390" height="74" fill="#FFFFFF" stroke="#E2E8F0"/><circle cx="40" cy="796" r="10" fill="#94A3B8"/><text x="40" y="830" text-anchor="middle" font-family="Arial, Noto Sans TC, sans-serif" font-size="11" font-weight="700" fill="#94A3B8">首頁</text><circle cx="120" cy="796" r="10" fill="#94A3B8"/><text x="120" y="830" text-anchor="middle" font-family="Arial, Noto Sans TC, sans-serif" font-size="11" font-weight="700" fill="#94A3B8">健康紀錄</text><circle cx="195" cy="792" r="24" fill="#1E3A8A"/><text x="195" y="800" text-anchor="middle" font-family="Arial" font-size="28" font-weight="700" fill="#fff">+</text><text x="195" y="830" text-anchor="middle" font-family="Arial, Noto Sans TC, sans-serif" font-size="11" font-weight="700" fill="#1E3A8A">新增</text><circle cx="270" cy="796" r="10" fill="#94A3B8"/><text x="270" y="830" text-anchor="middle" font-family="Arial, Noto Sans TC, sans-serif" font-size="11" font-weight="700" fill="#94A3B8">分析</text><circle cx="345" cy="796" r="10" fill="#94A3B8"/><text x="345" y="830" text-anchor="middle" font-family="Arial, Noto Sans TC, sans-serif" font-size="11" font-weight="700" fill="#94A3B8">我的</text>
    </svg>