<svg xmlns="http://www.w3.org/2000/svg" width="390" height="844" viewBox="0 0 390 844">
    <rect width="390" height="844" fill="#F8FAFC"/>
    <rect x="0" y="0" width="390" height="96" fill="#F8FAFC"/><text x="24" y="54" text-anchor="start" font-family="Arial, Noto Sans TC, sans-serif" font-size="22" font-weight="700" fill="#0F172A">←</text><text x="195" y="54" text-anchor="middle" font-family="Arial, Noto Sans TC, sans-serif" font-size="20" font-weight="700" fill="#0F172A">分析報告</text><rect x="16" y="108" width="358" height="130" rx="16" fill="#0F172A" stroke="#0F172A"/><text x="32" y="142" text-anchor="start" font-family="Arial, Noto Sans TC, sans-serif" font-size="13" font-weight="400" fill="#CBD5E1">整體健康分數</text><text x="32" y="196" text-anchor="start" font-family="Arial, Noto Sans TC, sans-serif" font-size="40" font-weight="700" fill="#FFFFFF">78</text><text x="120" y="194" text-anchor="start" font-family="Arial, Noto Sans TC, sans-serif" font-size="16" font-weight="700" fill="#FDE68A">中等風險</text><rect x="16" y="254" width="170" height="170" rx="16" fill="#FFFFFF" stroke="#E2E8F0"/><text x="32" y="282" font-family="Arial, Noto Sans TC, sans-serif" font-size="16" font-weight="700" fill="#0F172A">風險雷達圖</text><polygon points="101,320 132,290 162,320 142,355 122,385 81,385 61,355 41,320 71,290" fill="#DBEAFE" stroke="#60A5FA"/><rect x="204" y="254" width="170" height="170" rx="16" fill="#FFFFFF" stroke="#E2E8F0"/><text x="220" y="282" font-family="Arial, Noto Sans TC, sans-serif" font-size="16" font-weight="700" fill="#0F172A">異常項目</text><text x="220" y="296" text-anchor="start" font-family="Arial, Noto Sans TC, sans-serif" font-size="14" font-weight="700" fill="#F59E0B">• 血糖</text><text x="220" y="330" text-anchor="start" font-family="Arial, Noto Sans TC, sans-serif" font-size="14" font-weight="700" fill="#EF4444">• LDL</text><text x="220" y="364" text-anchor="start" font-family="Arial, Noto Sans TC, sans-serif" font-size="14" font-weight="700" fill="#EF4444">• 酒精代謝基因</text><rect x="16" y="442" width="358" height="156" rx="16" fill="#FFFFFF" stroke="#E2E8F0"/><text x="32" y="470" font-family="Arial, Noto Sans TC, sans-serif" font-size="16" font-weight="700" fill="#0F172A">AI 摘要</text><text x="32" y="484" text-anchor="start" font-family="Arial, Noto Sans TC, sans-serif" font-size="14" font-weight="400" fill="#334155">你目前的代謝與脂質風險較需要注意，建議優先追蹤血糖、LDL，並調整飲食與運動。</text><rect x="16" y="616" width="358" height="50" rx="14" fill="#1E3A8A"/><text x="195.0" y="646.0" text-anchor="middle" font-family="Arial, Noto Sans TC, sans-serif" font-size="16" font-weight="700" fill="#fff">查看完整分析</text><rect x="0" y="770" width="390" height="74" fill="#FFFFFF" stroke="#E2E8F0"/><circle cx="40" cy="796" r="10" fill="#94A3B8"/><text x="40" y="830" text-anchor="middle" font-family="Arial, Noto Sans TC, sans-serif" font-size="11" font-weight="700" fill="#94A3B8">首頁</text><circle cx="120" cy="796" r="10" fill="#94A3B8"/><text x="120" y="830" text-anchor="middle" font-family="Arial, Noto Sans TC, sans-serif" font-size="11" font-weight="700" fill="#94A3B8">健康紀錄</text><circle cx="195" cy="792" r="24" fill="#1E3A8A"/><text x="195" y="800" text-anchor="middle" font-family="Arial" font-size="28" font-weight="700" fill="#fff">+</text><text x="195" y="830" text-anchor="middle" font-family="Arial, Noto Sans TC, sans-serif" font-size="11" font-weight="700" fill="#94A3B8">新增</text><circle cx="270" cy="796" r="10" fill="#1E3A8A"/><text x="270" y="830" text-anchor="middle" font-family="Arial, Noto Sans TC, sans-serif" font-size="11" font-weight="700" fill="#1E3A8A">分析</text><circle cx="345" cy="796" r="10" fill="#94A3B8"/><text x="345" y="830" text-anchor="middle" font-family="Arial, Noto Sans TC, sans-serif" font-size="11" font-weight="700" fill="#94A3B8">我的</text>
    </svg>