<svg xmlns="http://www.w3.org/2000/svg" width="390" height="844" viewBox="0 0 390 844">
    <rect width="390" height="844" fill="#F8FAFC"/>
    <rect x="0" y="0" width="390" height="96" fill="#F8FAFC"/><text x="24" y="54" text-anchor="start" font-family="Arial, Noto Sans TC, sans-serif" font-size="22" font-weight="700" fill="#0F172A">←</text><text x="195" y="54" text-anchor="middle" font-family="Arial, Noto Sans TC, sans-serif" font-size="20" font-weight="700" fill="#0F172A">企業匹配</text><rect x="16" y="110" width="358" height="180" rx="16" fill="#FFFFFF" stroke="#E2E8F0"/><text x="32" y="138" font-family="Arial, Noto Sans TC, sans-serif" font-size="16" font-weight="700" fill="#0F172A">加入企業</text><text x="32" y="158" text-anchor="start" font-family="Arial, Noto Sans TC, sans-serif" font-size="13" font-weight="700" fill="#334155">企業代碼</text><rect x="32" y="172" width="326" height="50" rx="12" fill="#F8FAFC" stroke="#CBD5E1"/><text x="46" y="204" text-anchor="start" font-family="Arial, Noto Sans TC, sans-serif" font-size="14" font-weight="400" fill="#94A3B8">請輸入企業邀請碼</text><rect x="32" y="240" width="326" height="46" rx="14" fill="#1E3A8A"/><text x="195.0" y="268.0" text-anchor="middle" font-family="Arial, Noto Sans TC, sans-serif" font-size="16" font-weight="700" fill="#fff">加入企業</text><text x="195" y="310" text-anchor="middle" font-family="Arial, Noto Sans TC, sans-serif" font-size="14" font-weight="400" fill="#64748B">或</text><rect x="32" y="330" width="326" height="46" rx="14" fill="#0F766E"/><text x="195.0" y="358.0" text-anchor="middle" font-family="Arial, Noto Sans TC, sans-serif" font-size="16" font-weight="700" fill="#fff">掃描 QR Code</text><rect x="16" y="414" width="358" height="150" rx="16" fill="#FFFFFF" stroke="#E2E8F0"/><text x="32" y="442" font-family="Arial, Noto Sans TC, sans-serif" font-size="16" font-weight="700" fill="#0F172A">目前狀態</text><text x="32" y="456" text-anchor="start" font-family="Arial, Noto Sans TC, sans-serif" font-size="16" font-weight="700" fill="#0F172A">已加入企業：康見國際</text><text x="32" y="486" text-anchor="start" font-family="Arial, Noto Sans TC, sans-serif" font-size="14" font-weight="700" fill="#10B981">授權狀態：已啟用</text><text x="32" y="516" text-anchor="start" font-family="Arial, Noto Sans TC, sans-serif" font-size="13" font-weight="400" fill="#64748B">資料同步：僅限使用者指定項目</text><rect x="16" y="590" width="358" height="50" rx="14" fill="#475569"/><text x="195.0" y="620.0" text-anchor="middle" font-family="Arial, Noto Sans TC, sans-serif" font-size="16" font-weight="700" fill="#fff">解除綁定</text><rect x="0" y="770" width="390" height="74" fill="#FFFFFF" stroke="#E2E8F0"/><circle cx="40" cy="796" r="10" fill="#94A3B8"/><text x="40" y="830" text-anchor="middle" font-family="Arial, Noto Sans TC, sans-serif" font-size="11" font-weight="700" fill="#94A3B8">首頁</text><circle cx="120" cy="796" r="10" fill="#94A3B8"/><text x="120" y="830" text-anchor="middle" font-family="Arial, Noto Sans TC, sans-serif" font-size="11" font-weight="700" fill="#94A3B8">健康紀錄</text><circle cx="195" cy="792" r="24" fill="#1E3A8A"/><text x="195" y="800" text-anchor="middle" font-family="Arial" font-size="28" font-weight="700" fill="#fff">+</text><text x="195" y="830" text-anchor="middle" font-family="Arial, Noto Sans TC, sans-serif" font-size="11" font-weight="700" fill="#94A3B8">新增</text><circle cx="270" cy="796" r="10" fill="#94A3B8"/><text x="270" y="830" text-anchor="middle" font-family="Arial, Noto Sans TC, sans-serif" font-size="11" font-weight="700" fill="#94A3B8">分析</text><circle cx="345" cy="796" r="10" fill="#1E3A8A"/><text x="345" y="830" text-anchor="middle" font-family="Arial, Noto Sans TC, sans-serif" font-size="11" font-weight="700" fill="#1E3A8A">我的</text>
    </svg>