<svg xmlns="http://www.w3.org/2000/svg" width="390" height="844" viewBox="0 0 390 844">
    <rect width="390" height="844" fill="#F8FAFC"/>
    <rect x="0" y="0" width="390" height="96" fill="#F8FAFC"/><text x="24" y="54" text-anchor="start" font-family="Arial, Noto Sans TC, sans-serif" font-size="22" font-weight="700" fill="#0F172A">←</text><text x="195" y="54" text-anchor="middle" font-family="Arial, Noto Sans TC, sans-serif" font-size="20" font-weight="700" fill="#0F172A">資料授權設定</text><rect x="16" y="110" width="358" height="420" rx="16" fill="#FFFFFF" stroke="#E2E8F0"/><text x="32" y="138" font-family="Arial, Noto Sans TC, sans-serif" font-size="16" font-weight="700" fill="#0F172A">分享與同步設定</text><text x="32" y="158" text-anchor="start" font-family="Arial, Noto Sans TC, sans-serif" font-size="15" font-weight="700" fill="#0F172A">同意分享指定健康資料</text><rect x="300" y="140" width="48" height="28" rx="14" fill="#10B981"/><circle cx="338" cy="154" r="10" fill="#FFFFFF"/><line x1="32" y1="178" x2="358" y2="178" stroke="#CBD5E1" stroke-width="1"/><text x="32" y="222" text-anchor="start" font-family="Arial, Noto Sans TC, sans-serif" font-size="15" font-weight="700" fill="#0F172A">同意匿名化統計使用</text><rect x="300" y="204" width="48" height="28" rx="14" fill="#10B981"/><circle cx="338" cy="218" r="10" fill="#FFFFFF"/><line x1="32" y1="242" x2="358" y2="242" stroke="#CBD5E1" stroke-width="1"/><text x="32" y="286" text-anchor="start" font-family="Arial, Noto Sans TC, sans-serif" font-size="15" font-weight="700" fill="#0F172A">允許傳送至企業系統</text><rect x="300" y="268" width="48" height="28" rx="14" fill="#10B981"/><circle cx="338" cy="282" r="10" fill="#FFFFFF"/><line x1="32" y1="306" x2="358" y2="306" stroke="#CBD5E1" stroke-width="1"/><text x="32" y="350" text-anchor="start" font-family="Arial, Noto Sans TC, sans-serif" font-size="15" font-weight="700" fill="#0F172A">允許以 E-mail 傳送報告</text><rect x="300" y="332" width="48" height="28" rx="14" fill="#CBD5E1"/><circle cx="314" cy="346" r="10" fill="#FFFFFF"/><line x1="32" y1="370" x2="358" y2="370" stroke="#CBD5E1" stroke-width="1"/><text x="32" y="414" text-anchor="start" font-family="Arial, Noto Sans TC, sans-serif" font-size="15" font-weight="700" fill="#0F172A">允許藍牙傳送資料</text><rect x="300" y="396" width="48" height="28" rx="14" fill="#CBD5E1"/><circle cx="314" cy="410" r="10" fill="#FFFFFF"/><line x1="32" y1="434" x2="358" y2="434" stroke="#CBD5E1" stroke-width="1"/><rect x="16" y="548" width="358" height="96" rx="16" fill="#FFFFFF" stroke="#E2E8F0"/><text x="32" y="576" font-family="Arial, Noto Sans TC, sans-serif" font-size="16" font-weight="700" fill="#0F172A">授權提醒</text><text x="32" y="590" text-anchor="start" font-family="Arial, Noto Sans TC, sans-serif" font-size="13" font-weight="400" fill="#334155">所有分享皆需使用者主動授權，且可隨時關閉或撤回。</text><rect x="16" y="664" width="358" height="50" rx="14" fill="#1E3A8A"/><text x="195.0" y="694.0" text-anchor="middle" font-family="Arial, Noto Sans TC, sans-serif" font-size="16" font-weight="700" fill="#fff">儲存設定</text><rect x="0" y="770" width="390" height="74" fill="#FFFFFF" stroke="#E2E8F0"/><circle cx="40" cy="796" r="10" fill="#94A3B8"/><text x="40" y="830" text-anchor="middle" font-family="Arial, Noto Sans TC, sans-serif" font-size="11" font-weight="700" fill="#94A3B8">首頁</text><circle cx="120" cy="796" r="10" fill="#94A3B8"/><text x="120" y="830" text-anchor="middle" font-family="Arial, Noto Sans TC, sans-serif" font-size="11" font-weight="700" fill="#94A3B8">健康紀錄</text><circle cx="195" cy="792" r="24" fill="#1E3A8A"/><text x="195" y="800" text-anchor="middle" font-family="Arial" font-size="28" font-weight="700" fill="#fff">+</text><text x="195" y="830" text-anchor="middle" font-family="Arial, Noto Sans TC, sans-serif" font-size="11" font-weight="700" fill="#94A3B8">新增</text><circle cx="270" cy="796" r="10" fill="#94A3B8"/><text x="270" y="830" text-anchor="middle" font-family="Arial, Noto Sans TC, sans-serif" font-size="11" font-weight="700" fill="#94A3B8">分析</text><circle cx="345" cy="796" r="10" fill="#1E3A8A"/><text x="345" y="830" text-anchor="middle" font-family="Arial, Noto Sans TC, sans-serif" font-size="11" font-weight="700" fill="#1E3A8A">我的</text>
    </svg>