<svg xmlns="http://www.w3.org/2000/svg" width="390" height="844" viewBox="0 0 390 844">
    <rect width="390" height="844" fill="#F8FAFC"/>
    <rect x="0" y="0" width="390" height="96" fill="#F8FAFC"/><text x="24" y="54" text-anchor="start" font-family="Arial, Noto Sans TC, sans-serif" font-size="22" font-weight="700" fill="#0F172A">←</text><text x="195" y="54" text-anchor="middle" font-family="Arial, Noto Sans TC, sans-serif" font-size="20" font-weight="700" fill="#0F172A">癌症風險</text><rect x="16" y="102" width="358" height="54" rx="16" fill="#F8FAFC" stroke="#CBD5E1"/><text x="32" y="136" text-anchor="start" font-family="Arial, Noto Sans TC, sans-serif" font-size="13" font-weight="700" fill="#475569">基因功能</text><text x="194" y="136" text-anchor="middle" font-family="Arial, Noto Sans TC, sans-serif" font-size="13" font-weight="700" fill="#475569">位點 / 型別</text><text x="342" y="136" text-anchor="end" font-family="Arial, Noto Sans TC, sans-serif" font-size="13" font-weight="700" fill="#475569">風險</text><rect x="16" y="166" width="358" height="58" rx="12" fill="#FFFFFF" stroke="#E2E8F0"/><text x="32" y="201" text-anchor="start" font-family="Arial, Noto Sans TC, sans-serif" font-size="14" font-weight="700" fill="#0F172A">肺癌</text><text x="194" y="201" text-anchor="middle" font-family="Arial, Noto Sans TC, sans-serif" font-size="14" font-weight="400" fill="#334155">NAT2 / CC</text><rect x="314" y="181" width="44" height="28" rx="14" fill="#10B981"/><text x="336" y="200" text-anchor="middle" font-family="Arial, Noto Sans TC, sans-serif" font-size="12" font-weight="700" fill="#fff">低</text><rect x="16" y="232" width="358" height="58" rx="12" fill="#FFFFFF" stroke="#E2E8F0"/><text x="32" y="267" text-anchor="start" font-family="Arial, Noto Sans TC, sans-serif" font-size="14" font-weight="700" fill="#0F172A">肝癌</text><text x="194" y="267" text-anchor="middle" font-family="Arial, Noto Sans TC, sans-serif" font-size="14" font-weight="400" fill="#334155">EGF / GG</text><rect x="314" y="247" width="44" height="28" rx="14" fill="#EF4444"/><text x="336" y="266" text-anchor="middle" font-family="Arial, Noto Sans TC, sans-serif" font-size="12" font-weight="700" fill="#fff">高</text><rect x="16" y="298" width="358" height="58" rx="12" fill="#FFFFFF" stroke="#E2E8F0"/><text x="32" y="333" text-anchor="start" font-family="Arial, Noto Sans TC, sans-serif" font-size="14" font-weight="700" fill="#0F172A">大腸癌</text><text x="194" y="333" text-anchor="middle" font-family="Arial, Noto Sans TC, sans-serif" font-size="14" font-weight="400" fill="#334155">LBP / AG</text><rect x="314" y="313" width="44" height="28" rx="14" fill="#F59E0B"/><text x="336" y="332" text-anchor="middle" font-family="Arial, Noto Sans TC, sans-serif" font-size="12" font-weight="700" fill="#fff">中</text><rect x="16" y="364" width="358" height="58" rx="12" fill="#FFFFFF" stroke="#E2E8F0"/><text x="32" y="399" text-anchor="start" font-family="Arial, Noto Sans TC, sans-serif" font-size="14" font-weight="700" fill="#0F172A">胃癌</text><text x="194" y="399" text-anchor="middle" font-family="Arial, Noto Sans TC, sans-serif" font-size="14" font-weight="400" fill="#334155">PSCA / TT</text><rect x="314" y="379" width="44" height="28" rx="14" fill="#EF4444"/><text x="336" y="398" text-anchor="middle" font-family="Arial, Noto Sans TC, sans-serif" font-size="12" font-weight="700" fill="#fff">高</text><rect x="16" y="430" width="358" height="58" rx="12" fill="#FFFFFF" stroke="#E2E8F0"/><text x="32" y="465" text-anchor="start" font-family="Arial, Noto Sans TC, sans-serif" font-size="14" font-weight="700" fill="#0F172A">口腔癌</text><text x="194" y="465" text-anchor="middle" font-family="Arial, Noto Sans TC, sans-serif" font-size="14" font-weight="400" fill="#334155">CD44 / AA</text><rect x="314" y="445" width="44" height="28" rx="14" fill="#10B981"/><text x="336" y="464" text-anchor="middle" font-family="Arial, Noto Sans TC, sans-serif" font-size="12" font-weight="700" fill="#fff">低</text><rect x="16" y="496" width="358" height="58" rx="12" fill="#FFFFFF" stroke="#E2E8F0"/><text x="32" y="531" text-anchor="start" font-family="Arial, Noto Sans TC, sans-serif" font-size="14" font-weight="700" fill="#0F172A">前列腺癌</text><text x="194" y="531" text-anchor="middle" font-family="Arial, Noto Sans TC, sans-serif" font-size="14" font-weight="400" fill="#334155">CYP1A1 / TT</text><rect x="314" y="511" width="44" height="28" rx="14" fill="#10B981"/><text x="336" y="530" text-anchor="middle" font-family="Arial, Noto Sans TC, sans-serif" font-size="12" font-weight="700" fill="#fff">低</text><rect x="16" y="562" width="358" height="58" rx="12" fill="#FFFFFF" stroke="#E2E8F0"/><text x="32" y="597" text-anchor="start" font-family="Arial, Noto Sans TC, sans-serif" font-size="14" font-weight="700" fill="#0F172A">普遍性癌症</text><text x="194" y="597" text-anchor="middle" font-family="Arial, Noto Sans TC, sans-serif" font-size="14" font-weight="400" fill="#334155">P53 / CG</text><rect x="314" y="577" width="44" height="28" rx="14" fill="#F59E0B"/><text x="336" y="596" text-anchor="middle" font-family="Arial, Noto Sans TC, sans-serif" font-size="12" font-weight="700" fill="#fff">中</text><rect x="0" y="770" width="390" height="74" fill="#FFFFFF" stroke="#E2E8F0"/><circle cx="40" cy="796" r="10" fill="#94A3B8"/><text x="40" y="830" text-anchor="middle" font-family="Arial, Noto Sans TC, sans-serif" font-size="11" font-weight="700" fill="#94A3B8">首頁</text><circle cx="120" cy="796" r="10" fill="#1E3A8A"/><text x="120" y="830" text-anchor="middle" font-family="Arial, Noto Sans TC, sans-serif" font-size="11" font-weight="700" fill="#1E3A8A">健康紀錄</text><circle cx="195" cy="792" r="24" fill="#1E3A8A"/><text x="195" y="800" text-anchor="middle" font-family="Arial" font-size="28" font-weight="700" fill="#fff">+</text><text x="195" y="830" text-anchor="middle" font-family="Arial, Noto Sans TC, sans-serif" font-size="11" font-weight="700" fill="#94A3B8">新增</text><circle cx="270" cy="796" r="10" fill="#94A3B8"/><text x="270" y="830" text-anchor="middle" font-family="Arial, Noto Sans TC, sans-serif" font-size="11" font-weight="700" fill="#94A3B8">分析</text><circle cx="345" cy="796" r="10" fill="#94A3B8"/><text x="345" y="830" text-anchor="middle" font-family="Arial, Noto Sans TC, sans-serif" font-size="11" font-weight="700" fill="#94A3B8">我的</text>
    </svg>